<svg viewBox="0 0 18 20" fill="none" xmlns="http://www.w3.org/2000/svg">
<path d="M1.10892 12.3083C0.931708 13.47 1.72398 14.2763 2.69403 14.6782C6.41299 16.2188 11.5883 16.2188 15.3073 14.6782C16.2773 14.2763 17.0696 13.47 16.8924 12.3083C16.7835 11.5944 16.245 10.9999 15.846 10.4194C15.3234 9.64971 15.2715 8.81018 15.2714 7.91699C15.2714 4.46521 12.4639 1.66699 9.00065 1.66699C5.53742 1.66699 2.72992 4.46521 2.72992 7.91699C2.72985 8.81018 2.67792 9.64971 2.15532 10.4194C1.75635 10.9999 1.21783 11.5944 1.10892 12.3083Z" stroke="currentColor" stroke-width="1.5" stroke-linecap="round" stroke-linejoin="round"/>
<path d="M5.66797 15.834C6.05004 17.2717 7.39758 18.334 9.0013 18.334C10.605 18.334 11.9526 17.2717 12.3346 15.834" stroke="#99A0AE" stroke-width="1.5" stroke-linecap="round" stroke-linejoin="round"/>
</svg>
