<svg width="20" height="20" viewBox="0 0 20 20" fill="none" xmlns="http://www.w3.org/2000/svg">
<g clip-path="url(#clip0_5967_9414)">
<path d="M10 15L10 12.5" stroke="currentColor" stroke-width="1.5" stroke-linecap="round"/>
<path d="M1.96079 11.0115C1.66661 9.09719 1.51952 8.14002 1.88144 7.29147C2.24336 6.44292 3.04632 5.86235 4.65225 4.70121L5.85213 3.83366C7.84988 2.38921 8.84875 1.66699 10.0013 1.66699C11.1538 1.66699 12.1527 2.38921 14.1505 3.83366L15.3504 4.70121C16.9563 5.86235 17.7592 6.44292 18.1212 7.29147C18.4831 8.14002 18.336 9.09719 18.0418 11.0115L17.7909 12.644C17.3739 15.3578 17.1654 16.7147 16.1921 17.5242C15.2189 18.3337 13.796 18.3337 10.9503 18.3337H9.05229C6.20658 18.3337 4.78372 18.3337 3.81047 17.5242C2.83721 16.7147 2.62869 15.3578 2.21166 12.644L1.96079 11.0115Z" stroke="currentColor" stroke-width="1.5" stroke-linejoin="round"/>
</g>
<defs>
<clipPath id="clip0_5967_9414">
<rect width="20" height="20" fill="white"/>
</clipPath>
</defs>
</svg>
