<svg viewBox="0 0 20 20" fill="none" xmlns="http://www.w3.org/2000/svg">
<g clip-path="url(#clip0_5660_40136)">
<path d="M11.7274 3.23723C12.3484 2.56442 12.6589 2.22801 12.9889 2.03179C13.785 1.55831 14.7653 1.54359 15.5746 1.99295C15.9101 2.17918 16.2301 2.50612 16.8702 3.15998C17.5103 3.81385 17.8303 4.14079 18.0126 4.48345C18.4525 5.31028 18.4381 6.31168 17.9746 7.12494C17.7825 7.46198 17.4532 7.77916 16.7946 8.41352L8.95821 15.9613C7.71008 17.1634 7.08602 17.7645 6.30607 18.0691C5.52612 18.3738 4.66868 18.3513 2.95382 18.3065L2.7205 18.3004C2.19844 18.2867 1.93741 18.2799 1.78567 18.1077C1.63393 17.9355 1.65465 17.6696 1.69608 17.1378L1.71858 16.8491C1.83519 15.3523 1.89349 14.6039 2.18577 13.9312C2.47805 13.2585 2.98221 12.7122 3.99054 11.6198L11.7274 3.23723Z" stroke="currentColor" stroke-width="1.5" stroke-linejoin="round"/>
<path d="M10.832 3.33203L16.6654 9.16537" stroke="currentColor" stroke-width="1.5" stroke-linejoin="round"/>
</g>
<defs>
<clipPath id="clip0_5660_40136">
<rect width="20" height="20" fill="white"/>
</clipPath>
</defs>
</svg>
