<svg width="20" height="20" viewBox="0 0 20 20" fill="none" xmlns="http://www.w3.org/2000/svg">
<path d="M2.08203 9.99967C2.08203 6.26772 2.08203 4.40175 3.2414 3.24238C4.40077 2.08301 6.26675 2.08301 9.9987 2.08301C13.7306 2.08301 15.5966 2.08301 16.756 3.24238C17.9154 4.40175 17.9154 6.26772 17.9154 9.99967C17.9154 13.7316 17.9154 15.5976 16.756 16.757C15.5966 17.9163 13.7306 17.9163 9.9987 17.9163C6.26675 17.9163 4.40077 17.9163 3.2414 16.757C2.08203 15.5976 2.08203 13.7316 2.08203 9.99967Z" stroke="currentColor" stroke-width="1.5" stroke-linecap="round" stroke-linejoin="round"/>
<path d="M17.9154 11.25H13.8106C13.1089 11.25 12.5575 11.8363 12.2482 12.456C11.9123 13.1293 11.2394 13.75 9.9987 13.75C8.75797 13.75 8.08514 13.1293 7.74915 12.456C7.43988 11.8363 6.88851 11.25 6.18675 11.25H2.08203" stroke="currentColor" stroke-width="1.5" stroke-linejoin="round"/>
</svg>
