<svg width="20" height="20" viewBox="0 0 20 20" fill="none" xmlns="http://www.w3.org/2000/svg">
<path d="M10.4412 1.66699C13.7687 1.66699 15.4325 1.66699 16.4663 2.6433C17.5 3.61961 17.5 5.19096 17.5 8.33366V11.667C17.5 14.8097 17.5 16.381 16.4663 17.3573C15.4325 18.3337 13.7687 18.3337 10.4412 18.3337H9.55882C6.23126 18.3337 4.56748 18.3337 3.53374 17.3573C2.5 16.381 2.5 14.8097 2.5 11.667L2.5 8.33366C2.5 5.19096 2.5 3.61961 3.53374 2.6433C4.56748 1.66699 6.23126 1.66699 9.55882 1.66699L10.4412 1.66699Z" stroke="currentColor" stroke-width="1.5" stroke-linecap="round"/>
<path d="M6.66797 5.83398H13.3346" stroke="currentColor" stroke-width="1.5" stroke-linecap="round"/>
<path d="M6.66797 10H13.3346" stroke="currentColor" stroke-width="1.5" stroke-linecap="round"/>
<path d="M6.66797 14.167L10.0013 14.167" stroke="currentColor" stroke-width="1.5" stroke-linecap="round"/>
</svg>
