<svg width="20" height="16" viewBox="0 0 20 16" fill="none" xmlns="http://www.w3.org/2000/svg">
<path d="M17.3117 13C17.9361 13 18.4328 12.6071 18.8787 12.0576C19.7916 10.9329 18.2928 10.034 17.7211 9.59383C17.14 9.14635 16.4912 8.89285 15.8333 8.83333M15 7.16667C16.1506 7.16667 17.0833 6.23393 17.0833 5.08333C17.0833 3.93274 16.1506 3 15 3" stroke="currentColor" stroke-width="1.5" stroke-linecap="round"/>
<path d="M2.687 13C2.06258 13 1.56592 12.6071 1.11999 12.0576C0.207105 10.9329 1.70592 10.034 2.27757 9.59383C2.85868 9.14635 3.50752 8.89285 4.16536 8.83333M4.58203 7.16667C3.43144 7.16667 2.4987 6.23393 2.4987 5.08333C2.4987 3.93274 3.43144 3 4.58203 3" stroke="currentColor" stroke-width="1.5" stroke-linecap="round"/>
<path d="M6.7352 10.592C5.88372 11.1185 3.65119 12.1936 5.01095 13.5389C5.67518 14.196 6.41497 14.666 7.34505 14.666H12.6523C13.5824 14.666 14.3222 14.196 14.9864 13.5389C16.3462 12.1936 14.1137 11.1185 13.2622 10.592C11.2655 9.35735 8.73191 9.35735 6.7352 10.592Z" stroke="currentColor" stroke-width="1.5" stroke-linecap="round" stroke-linejoin="round"/>
<path d="M12.9154 4.24967C12.9154 5.86051 11.6095 7.16634 9.9987 7.16634C8.38787 7.16634 7.08203 5.86051 7.08203 4.24967C7.08203 2.63884 8.38787 1.33301 9.9987 1.33301C11.6095 1.33301 12.9154 2.63884 12.9154 4.24967Z" stroke="currentColor" stroke-width="1.5"/>
</svg>
