<svg width="20" height="20" viewBox="0 0 20 20" fill="none" xmlns="http://www.w3.org/2000/svg">
<path d="M5.83203 14.1663L5.83203 10.833" stroke="currentColor" stroke-width="1.5" stroke-linecap="round"/>
<path d="M10 14.1663L10 5.83301" stroke="currentColor" stroke-width="1.5" stroke-linecap="round"/>
<path d="M14.1641 14.166L14.1641 9.16602" stroke="currentColor" stroke-width="1.5" stroke-linecap="round"/>
<path d="M2.08203 9.99967C2.08203 6.26772 2.08203 4.40175 3.2414 3.24238C4.40077 2.08301 6.26675 2.08301 9.9987 2.08301C13.7306 2.08301 15.5966 2.08301 16.756 3.24238C17.9154 4.40175 17.9154 6.26772 17.9154 9.99967C17.9154 13.7316 17.9154 15.5976 16.756 16.757C15.5966 17.9163 13.7306 17.9163 9.9987 17.9163C6.26675 17.9163 4.40077 17.9163 3.2414 16.757C2.08203 15.5976 2.08203 13.7316 2.08203 9.99967Z" stroke="currentColor" stroke-width="1.5" stroke-linejoin="round"/>
</svg>
