<svg viewBox="0 0 20 20" fill="none" xmlns="http://www.w3.org/2000/svg">
<g clip-path="url(#clip0_5995_10979)">
<path d="M8.74935 18.3333H5.49174C4.20392 18.3333 3.17961 17.7067 2.2599 16.8305C0.377153 15.0368 3.46835 13.6033 4.64733 12.9013C6.77273 11.6358 9.33745 11.3431 11.666 12.0234" stroke="currentColor" stroke-width="1.5" stroke-linecap="round" stroke-linejoin="round"/>
<path d="M13.75 5.41666C13.75 7.48772 12.0711 9.16666 10 9.16666C7.92893 9.16666 6.25 7.48772 6.25 5.41666C6.25 3.34559 7.92893 1.66666 10 1.66666C12.0711 1.66666 13.75 3.34559 13.75 5.41666Z" stroke="currentColor" stroke-width="1.5"/>
<path d="M15.3597 11.5404C15.6391 11.2376 15.7788 11.0862 15.9273 10.9979C16.2856 10.7848 16.7267 10.7782 17.0909 10.9804C17.2419 11.0642 17.3859 11.2114 17.6739 11.5056C17.962 11.7998 18.106 11.947 18.188 12.1012C18.386 12.4732 18.3795 12.9239 18.1709 13.2898C18.0845 13.4415 17.9363 13.5842 17.6399 13.8697L14.1135 17.2662C13.5519 17.8071 13.271 18.0776 12.9201 18.2147C12.5691 18.3518 12.1832 18.3417 11.4115 18.3215L11.3065 18.3188C11.0716 18.3126 10.9542 18.3096 10.8859 18.2321C10.8176 18.1546 10.8269 18.0349 10.8456 17.7956L10.8557 17.6657C10.9082 16.9921 10.9344 16.6554 11.0659 16.3526C11.1974 16.0499 11.4243 15.8041 11.8781 15.3125L15.3597 11.5404Z" stroke="currentColor" stroke-width="1.5" stroke-linejoin="round"/>
</g>
<defs>
<clipPath id="clip0_5995_10979">
<rect width="20" height="20" fill="white"/>
</clipPath>
</defs>
</svg>
