<svg width="18" height="18" viewBox="0 0 18 18" fill="none" xmlns="http://www.w3.org/2000/svg">
<path d="M16.9677 7.94948L15.8344 6.63281C15.6177 6.38281 15.4427 5.91615 15.4427 5.58281V4.16615C15.4427 3.28281 14.7177 2.55781 13.8344 2.55781H12.4177C12.0927 2.55781 11.6177 2.38281 11.3677 2.16615L10.051 1.03281C9.47604 0.541146 8.53438 0.541146 7.95104 1.03281L6.64271 2.17448C6.39271 2.38281 5.91771 2.55781 5.59271 2.55781H4.15104C3.26771 2.55781 2.54271 3.28281 2.54271 4.16615V5.59115C2.54271 5.91615 2.36771 6.38281 2.15937 6.63281L1.03438 7.95781C0.551042 8.53281 0.551042 9.46615 1.03438 10.0411L2.15937 11.3661C2.36771 11.6161 2.54271 12.0828 2.54271 12.4078V13.8328C2.54271 14.7161 3.26771 15.4411 4.15104 15.4411H5.59271C5.91771 15.4411 6.39271 15.6161 6.64271 15.8328L7.95938 16.9661C8.53438 17.4578 9.47604 17.4578 10.0594 16.9661L11.376 15.8328C11.626 15.6161 12.0927 15.4411 12.426 15.4411H13.8427C14.726 15.4411 15.451 14.7161 15.451 13.8328V12.4161C15.451 12.0911 15.626 11.6161 15.8427 11.3661L16.976 10.0495C17.4594 9.47448 17.4594 8.52448 16.9677 7.94948ZM12.4677 7.42448L8.44271 11.4495C8.32604 11.5661 8.16771 11.6328 8.00104 11.6328C7.83438 11.6328 7.67604 11.5661 7.55938 11.4495L5.54271 9.43281C5.30104 9.19115 5.30104 8.79115 5.54271 8.54948C5.78438 8.30781 6.18437 8.30781 6.42604 8.54948L8.00104 10.1245L11.5844 6.54115C11.826 6.29948 12.226 6.29948 12.4677 6.54115C12.7094 6.78281 12.7094 7.18281 12.4677 7.42448Z" fill="#437EF7"/>
</svg>
